<?xml version="1.0" encoding="utf-8"?>
<!-- Generator: Adobe Illustrator 21.0.0, SVG Export Plug-In . SVG Version: 6.00 Build 0)  -->
<svg version="1.1" id="Layer_1" xmlns="http://www.w3.org/2000/svg" xmlns:xlink="http://www.w3.org/1999/xlink" x="0px" y="0px"
	 viewBox="0 0 841.9 595.3" style="enable-background:new 0 0 841.9 595.3;" xml:space="preserve">
<style type="text/css">
	.st0{fill:#808285;}
</style>
<g>
	<path class="st0" d="M144.5,21.2h98.7V1.4H134.6c-5.5,0-9.9,4.4-9.9,9.9v108.6h19.7V21.2z"/>
	<path class="st0" d="M717.2,119.9V11.3c0-5.5-4.4-9.9-9.9-9.9H598.7v19.7h98.7v98.7H717.2z"/>
	<path class="st0" d="M134.6,593.9h108.6v-19.7h-98.7v-98.7h-19.7V584C124.7,589.4,129.1,593.9,134.6,593.9z"/>
	<path class="st0" d="M598.7,574.1v19.7h108.6c5.5,0,9.9-4.4,9.9-9.9V475.4h-19.7v98.7H598.7z"/>
	<path class="st0" d="M411.1,573.9v20h19.7v-20c144.8-5.3,261-121.5,266.4-266.4h20v-19.7h-20c-5.3-144.8-121.5-261-266.4-266.4v-20
		h-19.7v20c-144.8,5.3-261,121.5-266.4,266.4h-20v19.7h20C150.1,452.3,266.2,568.5,411.1,573.9z M276.6,262l35.3,21.2
		c-4,24.2-33.7,44-48.9,44c-22-3.8-40.3-19-48-40C231.9,285.9,262.4,280.7,276.6,262z M214.1,267.5c2.6-33.1,18.2-48.8,48.8-48.8
		c28,0,43.4,13.3,47.9,40.9l-32.9-19.7c-4.7-2.8-10.7-1.3-13.5,3.4c-0.4,0.6-0.7,1.3-0.9,2C258.5,260.1,231.5,265.8,214.1,267.5
		L214.1,267.5z M263,363.7l8.2,20.4l-8.2,8.2l-8.2-8.2L263,363.7z M248.4,347L234,382.8c-1.5,3.7-0.6,7.9,2.2,10.7l19.7,19.7
		c3.9,3.9,10.1,3.9,14,0l19.7-19.7c2.8-2.8,3.7-7,2.2-10.7L277.5,347h21.9c18,0,32.6,14.6,32.6,32.6v66.2H211.4
		c-6.5-9.2-12.4-18.7-17.6-28.6v-37.5c0-18,14.6-32.6,32.6-32.6H248.4z M434.6,202.8l35.3,21.2c-4,24.2-33.7,44-48.9,44
		c-22-3.8-40.3-19-48-40C389.9,226.6,420.4,221.5,434.6,202.8z M372.1,208.2c2.6-33.1,18.2-48.8,48.8-48.8c28,0,43.4,13.3,47.9,40.9
		l-32.9-19.7c-4.7-2.8-10.7-1.3-13.5,3.4c-0.4,0.6-0.7,1.3-0.9,2C416.5,200.9,389.5,206.6,372.1,208.2L372.1,208.2z M420.9,304.5
		l8.2,20.4l-8.2,8.2l-8.2-8.2L420.9,304.5z M406.4,287.8L392,323.6c-1.5,3.7-0.6,7.9,2.2,10.7L414,354c3.9,3.9,10.1,3.9,14,0
		l19.7-19.7c2.8-2.8,3.7-7,2.2-10.7l-14.3-35.8h21.9c18,0,32.6,14.6,32.6,32.6v66.2H351.8v-66.2c0-18,14.6-32.6,32.6-32.6H406.4z
		 M592.5,262l35.3,21.2c-4,24.2-33.7,44-48.9,44c-22-3.8-40.3-19-48-40C547.8,285.9,578.4,280.7,592.5,262L592.5,262z M530.1,267.5
		c2.6-33.1,18.2-48.8,48.8-48.8c28,0,43.4,13.3,47.9,40.9l-32.9-19.7c-4.7-2.8-10.7-1.3-13.5,3.4c-0.4,0.6-0.7,1.3-0.9,2
		C574.4,260.1,547.5,265.8,530.1,267.5L530.1,267.5z M578.9,363.7l8.2,20.4l-8.2,8.2l-8.2-8.2L578.9,363.7z M564.3,347L550,382.8
		c-1.5,3.7-0.6,7.9,2.2,10.7l19.7,19.7c3.9,3.9,10.1,3.9,14,0l19.7-19.7c2.8-2.8,3.7-7,2.2-10.7L593.5,347h21.9
		c18,0,32.6,14.6,32.6,32.6v37.5c-5.2,9.9-11.1,19.5-17.6,28.6H509.8v-66.2c0-18,14.6-32.6,32.6-32.6H564.3z M430.8,554.1v-19.5
		h-19.7v19.5c-71-2.7-137.7-34.8-184.1-88.6h115c5.5,0,9.9-4.4,9.9-9.9v-49.4h138.2v49.4c0,5.5,4.4,9.9,9.9,9.9h115
		C568.5,519.3,501.8,551.4,430.8,554.1z M411.1,41.2v19.5h19.7V41.2c133.9,5.3,241.3,112.7,246.6,246.6h-19.5v19.7h19.5
		c-0.8,21.5-4.3,42.8-10.4,63.4c-3.8-22.8-22.1-40.3-45-43.1c15.4-12.1,24.9-30.3,26-49.9c0-65.3-37.6-79-69.1-79
		c-31.5,0-69.1,13.7-69.1,79c1.1,19.6,10.6,37.7,26,49.9c-8,1-15.7,3.8-22.5,8.3c-1.3,0.8-2.4,1.8-3.6,2.7v-18.4
		c0.1-26.4-19.6-48.7-45.8-51.9c15.4-12.1,24.9-30.3,26-49.8c0-65.3-37.6-79-69.1-79s-69.1,13.7-69.1,79c1.1,19.6,10.6,37.7,26,49.9
		c-26.2,3.2-45.8,25.5-45.8,51.8v18.4c-1.2-0.9-2.3-1.9-3.6-2.7c-6.7-4.5-14.4-7.3-22.5-8.3c15.4-12.1,24.9-30.3,26-49.8
		c0-65.3-37.6-79-69.1-79s-69.1,13.7-69.1,79c1.1,19.6,10.6,37.7,26,49.9c-22.9,2.8-41.2,20.4-45,43.1c-6.1-20.6-9.6-41.9-10.4-63.4
		H184v-19.7h-19.5C169.8,153.8,277.1,46.5,411.1,41.2z"/>
</g>
</svg>
